<?xml version="1.0" encoding="UTF-8" standalone="no"?>
<svg
   width="800"
   height="800"
   viewBox="0 0 211.66664 211.66667"
   version="1.1"
   id="svg8"
   inkscape:version="1.0.2-2 (e86c870879, 2021-01-15)"
   sodipodi:docname="The Logo.svg"
   xmlns:inkscape="http://www.inkscape.org/namespaces/inkscape"
   xmlns:sodipodi="http://sodipodi.sourceforge.net/DTD/sodipodi-0.dtd"
   xmlns="http://www.w3.org/2000/svg"
   xmlns:svg="http://www.w3.org/2000/svg"
   xmlns:rdf="http://www.w3.org/1999/02/22-rdf-syntax-ns#"
   xmlns:cc="http://creativecommons.org/ns#"
   xmlns:dc="http://purl.org/dc/elements/1.1/">
  <defs
     id="defs2">
    <clipPath
       clipPathUnits="userSpaceOnUse"
       id="clipPath207">
      <path
         style="fill:none;stroke:#000000;stroke-width:0.154255px;stroke-linecap:butt;stroke-linejoin:miter;stroke-opacity:1"
         d="m 25.161263,28.184591 c -1.088509,-7.520673 6.70047,-9.514263 12.340449,-11.018252 2.133924,-0.569052 4.873518,-1.386974 7.051683,-1.542556 1.670958,-0.119355 3.392511,0 5.06839,0 0.831838,0 1.82293,-0.136908 2.644387,0 0.950014,0.158336 1.945779,0.81465 2.864741,1.101824 1.773692,0.554279 3.508851,1.228948 5.288759,1.76292 0.872331,0.261698 1.396152,0.117731 2.203648,0.440732 0.389203,0.155681 0.721454,0.691274 1.101832,0.881459 1.82,0.909998 3.395905,2.110844 5.06839,3.305475 1.830828,1.307737 2.978165,3.795449 4.186942,5.729491 0.194655,0.311449 0.509105,0.547105 0.661093,0.88146 0.686869,1.511123 1.092453,3.239911 1.322186,4.84803 0.275254,1.926713 1.107185,3.477626 0.881463,5.50913 -0.161537,1.45383 -0.878223,2.953876 -1.101832,4.407298 -0.05586,0.363008 0.07967,0.743296 0,1.101826 -0.07125,0.32068 -0.361051,0.56277 -0.440724,0.881462 -0.16314,0.652578 -0.2579,2.787089 -0.661093,3.305474 -0.325201,0.418114 -0.912236,0.546038 -1.322186,0.881458 -1.023686,0.837556 -1.906906,1.769462 -3.08511,2.424016 -0.345795,0.192103 -0.766388,0.231084 -1.101832,0.440729 -0.264271,0.165174 -0.401789,0.488227 -0.661093,0.661097 -0.193282,0.128851 -0.459419,0.105122 -0.661093,0.220366 -0.275516,0.157432 -3.077382,2.201074 -3.085111,2.20365 -0.13937,0.04647 -0.301369,-0.04647 -0.440739,0 -0.295646,0.09855 -0.411769,0.474112 -0.661093,0.661096 -0.620369,0.465279 -1.680074,1.099009 -2.424017,1.322192 -1.609796,0.482938 -5.203641,1.379788 -6.831315,1.542554 -1.308966,0.130898 -2.660692,0.05713 -3.966573,0.220366 -1.02347,0.12793 -2.061409,0.53313 -3.08511,0.66109 -1.4345,0.179317 -7.303537,0.209874 -8.594239,-0.22036 -0.452432,-0.150815 -0.638695,-0.545317 -1.101817,-0.661096 -0.973075,-0.243269 -1.656025,-0.607647 -2.644387,-1.101826 -0.197092,-0.09855 -0.45203,0.06969 -0.661093,0 -0.07594,-0.0253 -1.591735,-1.016232 -1.76292,-1.101824 -0.542924,-0.271462 -1.369439,-0.487981 -1.76292,-0.881464 -0.143544,-0.143543 -0.321112,-0.702034 -0.440728,-0.881456 -0.633124,-0.949688 -1.605088,-1.730144 -1.983288,-2.864746 -0.645436,-1.936308 -0.987666,-4.011724 -1.762922,-5.949858 -1.837953,-4.594884 -3.132057,-8.48596 -2.424016,-13.44227 0.106401,-0.744775 -0.121254,-1.740765 0.220368,-2.424013 0.552568,-1.105135 1.172072,-2.123775 1.76292,-3.305474 z"
         id="path209" />
    </clipPath>
  </defs>
  <sodipodi:namedview
     id="base"
     pagecolor="#ffffff"
     bordercolor="#666666"
     borderopacity="1.0"
     inkscape:pageopacity="0.0"
     inkscape:pageshadow="2"
     inkscape:zoom="0.7"
     inkscape:cx="465.47724"
     inkscape:cy="423.28301"
     inkscape:document-units="mm"
     inkscape:current-layer="layer1"
     inkscape:document-rotation="0"
     showgrid="false"
     units="px"
     inkscape:window-width="1280"
     inkscape:window-height="961"
     inkscape:window-x="-8"
     inkscape:window-y="-8"
     inkscape:window-maximized="1"
     inkscape:showpageshadow="2"
     inkscape:pagecheckerboard="0"
     inkscape:deskcolor="#d1d1d1" />
  <metadata
     id="metadata5">
    <rdf:RDF>
      <cc:Work
         rdf:about="">
        <dc:format>image/svg+xml</dc:format>
        <dc:type
           rdf:resource="http://purl.org/dc/dcmitype/StillImage" />
        <dc:title />
      </cc:Work>
    </rdf:RDF>
  </metadata>
  <g
     inkscape:label="Layer 1"
     inkscape:groupmode="layer"
     id="layer1">
    <g
       id="g1"
       transform="matrix(1.924376,0,0,1.924376,7.016675,26.1678)"
       style="fill:#00c1ff;fill-opacity:1;filter:url(#filter1434)"
       clip-path="url(#clipPath207)">
      <path
         style="fill:#00c1ff;fill-opacity:1;stroke:#000000;stroke-width:0.168401;paint-order:stroke fill markers"
         d="M 37.416773,77.741031 C 36.35338,77.434955 34.788752,75.75885 34.455575,74.568835 33.865923,72.46282 34.886998,70.155416 36.853537,69.14992 l 1.04649,-0.535071 10.39848,-0.06017 c 11.915724,-0.06899 12.032895,-0.05616 13.578408,1.491657 2.333395,2.336814 1.609812,6.120304 -1.441227,7.535934 -0.786866,0.365092 -1.545088,0.389735 -11.577576,0.376315 -6.222489,-0.0083 -11.032261,-0.09977 -11.441339,-0.217511 z"
         id="path1497" />
      <path
         style="fill:#00c1ff;fill-opacity:1;stroke:#000000;stroke-width:0.168401;paint-order:stroke fill markers"
         d="M 12.057037,65.48082 C 10.820295,65.238074 9.022498,64.133341 8.0178448,62.998758 6.6258349,61.426742 6.1055629,60.040395 5.9145938,57.394378 5.6809999,54.157692 5.6956414,15.698449 5.9317635,12.275033 6.0806197,10.116988 6.2303816,9.2497398 6.5783112,8.5310162 7.2942621,7.0520475 8.9100446,5.4426918 10.537657,4.5874068 l 1.456877,-0.7655696 h 36.891939 36.891945 l 1.295663,0.7245751 c 1.556043,0.8701864 3.027191,2.3881097 3.809977,3.931126 0.470205,0.9268544 0.605309,1.5545157 0.742312,3.4485957 0.230712,3.18961 0.223056,42.334623 -0.0089,45.526085 -0.141248,1.943361 -0.301752,2.819265 -0.647516,3.533515 -0.722449,1.492366 -2.333222,3.099737 -3.966261,3.957873 L 85.546817,65.709176 49.266151,65.6861 C 29.311783,65.673419 12.567685,65.581026 12.057045,65.480804 Z m 72.615498,-4.162507 c 1.186005,-0.762726 1.777587,-1.409746 2.1888,-2.393906 0.287308,-0.687629 0.325798,-3.492205 0.325798,-23.737898 0,-20.245691 -0.03851,-23.050275 -0.325798,-23.737896 -0.411213,-0.98416 -1.002795,-1.6311799 -2.1888,-2.3939063 L 83.736686,8.4528628 H 48.770673 13.804656 l -0.96087,0.6093655 c -0.528479,0.3351469 -1.194961,0.9271849 -1.48108,1.3156287 -1.169151,1.587319 -1.113743,0.342692 -1.113743,25.019154 0,21.170759 0.02638,22.887511 0.360736,23.49827 0.849189,1.55109 1.965468,2.471918 3.428283,2.828039 0.347323,0.08456 16.171624,0.163435 35.165106,0.175288 l 34.533598,0.02158 z"
         id="path1499" />
      <g
         id="g1657"
         transform="matrix(0.78759877,0,0,0.78759877,-34.359283,-33.397067)"
         style="fill:#00c1ff;fill-opacity:1">
        <path
           style="fill:#e05b00;fill-opacity:1;stroke:#000000;stroke-width:0.0755952;paint-order:stroke fill markers"
           d="m 86.037988,100.54654 c -2.135825,-3.081379 -3.381081,-6.496239 -3.841615,-10.534829 -0.0991,-0.86904 -0.168791,-1.59147 -0.154868,-1.60539 0.01392,-0.0139 0.744778,0.0357 1.624123,0.11022 0.879348,0.0745 2.588009,0.16489 3.797025,0.20076 2.139119,0.0635 2.199325,0.0706 2.239611,0.26578 0.02278,0.11031 0.12978,0.98722 0.237807,1.94869 0.420664,3.74404 0.952429,5.79382 2.396252,9.236799 l 0.52505,1.25204 h -3.108767 -3.108767 z"
           id="path1540" />
        <path
           style="fill:#e05b00;fill-opacity:1;stroke:#000000;stroke-width:0.0755952;paint-order:stroke fill markers"
           d="m 82.046143,87.789851 c 0.02767,-0.16891 0.115953,-0.90242 0.196183,-1.63003 0.323077,-2.93 0.942988,-4.87037 2.636933,-8.25384 l 0.796266,-1.59045 1.723109,-0.0624 c 2.253377,-0.0816 4.622131,-0.0797 4.622131,0.004 0,0.0364 -0.211444,0.60303 -0.469879,1.25922 -0.935418,2.37516 -1.505217,5.31141 -1.750721,9.02173 -0.03095,0.46774 -0.07924,1.00991 -0.107318,1.2048 l -0.05105,0.35435 h -3.822986 -3.822983 z"
           id="path1542" />
        <path
           style="fill:#e05b00;fill-opacity:1;stroke:#000000;stroke-width:0.0755952;paint-order:stroke fill markers"
           d="m 86.604506,75.242181 c 0.671597,-1.13693 3.945731,-4.201138 5.740561,-5.372507 1.744922,-1.138798 6.579219,-3.325849 6.572131,-2.973255 -7.93e-4,0.04461 -0.536694,0.655164 -1.190662,1.356783 -2.234221,2.397017 -4.124145,4.925429 -4.96189,6.638209 l -0.311975,0.63783 H 89.4438 86.434929 Z"
           id="path1544" />
        <path
           style="fill:#00c1ff;fill-opacity:1;stroke:#000000;stroke-width:0.0755952;paint-order:stroke fill markers"
           d="m 98.58467,109.59143 c -0.854416,-0.22373 -2.496116,-0.88051 -3.634491,-1.45401 -2.713194,-1.36689 -4.758,-2.90482 -7.079499,-5.32461 l -0.70105,-0.73074 3.110648,0.003 3.11065,0.003 0.699622,1.09286 c 0.830525,1.29734 1.998038,2.76176 3.599966,4.51545 1.702742,1.86407 1.833134,2.14033 0.894154,1.89446 z"
           id="path1548" />
        <path
           style="fill:#00c1ff;fill-opacity:1;stroke:#000000;stroke-width:0.0755952;paint-order:stroke fill markers"
           d="m 98.038924,109.35573 c -3.690289,-1.24967 -6.793682,-3.22939 -9.703429,-6.19003 l -1.086681,-1.10569 2.165011,0.0583 c 1.190755,0.032 2.572732,0.0599 3.071056,0.062 l 0.906047,0.004 0.725691,1.10659 c 0.86549,1.31977 1.671993,2.33763 3.384799,4.27186 1.554554,1.75552 1.788583,2.08216 1.488281,2.07721 -0.06496,-0.001 -0.492813,-0.12883 -0.950775,-0.28391 z"
           id="path1552" />
        <path
           style="fill:#e07800;fill-opacity:1;stroke:#000000;stroke-width:0.0755952;paint-order:stroke fill markers"
           d="m 93.509046,75.468081 c -0.116938,-0.0256 -0.212614,-0.0662 -0.212614,-0.0903 0,-0.30984 1.394077,-2.36052 2.800731,-4.11986 1.081919,-1.353184 3.857488,-4.187646 4.475317,-4.570271 0.75932,-0.470257 1.4244,-0.620416 3.00018,-0.677368 l 1.44104,-0.05208 v 4.643773 4.643776 l -2.66946,0.002 c -2.351413,0.002 -5.557258,0.0932 -7.866631,0.22375 -0.415774,0.0235 -0.851628,0.0218 -0.968563,-0.004 z"
           id="path1554" />
        <path
           style="fill:#e07800;fill-opacity:1;stroke:#000000;stroke-width:0.0755952;paint-order:stroke fill markers"
           d="m 90.43027,86.514181 c 0.156472,-2.10057 0.274442,-3.01452 0.600707,-4.65384 0.422775,-2.12422 1.021371,-4.05611 1.534393,-4.95205 0.284385,-0.49665 0.587883,-0.70318 1.205484,-0.82036 0.296738,-0.0563 2.806975,-0.12052 5.880304,-0.15044 l 5.362542,-0.0522 v 6.10584 6.10584 h -7.350669 -7.350662 z"
           id="path1556" />
        <path
           style="fill:#e07800;fill-opacity:1;stroke:#000000;stroke-width:0.0755952;paint-order:stroke fill markers"
           d="m 94.218061,101.33018 c -0.487995,-0.0947 -0.660628,-0.27886 -1.143693,-1.2201 -1.285423,-2.504599 -2.369831,-6.788179 -2.664418,-10.524849 l -0.06518,-0.82682 h 7.334466 7.334464 v 6.3311 6.331099 l -5.220795,-0.0109 c -2.871438,-0.006 -5.380117,-0.0418 -5.574839,-0.0796 z"
           id="path1558" />
        <path
           style="fill:#e07800;fill-opacity:1;stroke:#000000;stroke-width:0.0755952;paint-order:stroke fill markers"
           d="m 103.54904,110.48962 c -1.43747,-0.0789 -1.82989,-0.17147 -2.46244,-0.58062 -0.66442,-0.42976 -3.91194,-3.71942 -4.834886,-4.89762 -0.427476,-0.5457 -1.075253,-1.42804 -1.439502,-1.96075 l -0.662271,-0.96856 h 5.431877 5.431882 v 4.25223 c 0,3.34664 -0.0252,4.2491 -0.11812,4.23751 -0.065,-0.008 -0.67091,-0.0451 -1.34654,-0.0822 z"
           id="path1560" />
        <path
           style="fill:#e09900;fill-opacity:1;stroke:#000000;stroke-width:0.0755952;paint-order:stroke fill markers"
           d="m 105.58066,70.60583 v -4.646618 l 1.58277,0.05085 c 2.82028,0.09061 3.27747,0.295492 5.41947,2.428578 1.49462,1.488398 2.94424,3.218551 3.94683,4.710591 0.73562,1.09475 1.18405,1.90115 1.10255,1.98271 -0.0366,0.0366 -2.76316,0.0787 -6.05907,0.0935 l -5.99255,0.027 z"
           id="path1562" />
        <path
           style="fill:#e09900;fill-opacity:1;stroke:#000000;stroke-width:0.0755952;paint-order:stroke fill markers"
           d="m 105.58061,82.025711 -5e-5,-6.07124 1.67732,0.0747 c 3.87611,-0.306478 6.30674,-0.07488 9.47002,0.14483 l 1.35023,0.0644 0.27389,0.7087 c 0.70023,1.81187 1.3954,5.63548 1.68364,9.26042 0.0558,0.70162 0.11905,1.41387 0.14057,1.58278 l 0.0391,0.3071 h -7.31735 -7.31735 z"
           id="path1564"
           sodipodi:nodetypes="cccccssccccc" />
        <path
           style="fill:#e09900;fill-opacity:1;stroke:#000000;stroke-width:0.0755952;paint-order:stroke fill markers"
           d="m 105.58066,95.089511 v -6.3311 h 7.25491 7.25492 l -0.025,0.35435 c -0.36656,5.1935 -0.65043,6.7312 -1.88215,10.19549 l -0.64324,1.809139 -0.54811,0.062 c -1.52207,0.17221 -3.42584,0.23484 -7.22996,0.23788 l -4.18136,0.003 z"
           id="path1566" />
        <path
           style="fill:#e09900;fill-opacity:1;stroke:#000000;stroke-width:0.0755952;paint-order:stroke fill markers"
           d="m 105.58066,106.38972 c 0,-2.31723 0.0319,-4.21398 0.0709,-4.21499 0.039,-10e-4 1.96312,-0.064 4.27586,-0.13991 5.09941,-0.16745 6.99256,-0.17897 6.99256,-0.0426 0,0.30707 -1.20581,2.10921 -2.46266,3.68057 -1.75561,2.19494 -3.40142,3.82006 -4.36599,4.31112 -0.70206,0.35742 -1.4128,0.4882 -3.02236,0.55612 l -1.48828,0.0628 z"
           id="path1568" />
        <path
           style="fill:#e0bf00;fill-opacity:1;stroke:#000000;stroke-width:0.0755952;paint-order:stroke fill markers"
           d="m 117.91301,73.851971 c -0.78087,-1.35395 -1.36943,-2.19169 -3.15686,-4.493419 -0.75885,-0.977196 -1.39539,-1.821474 -1.41454,-1.876174 -0.0632,-0.180652 0.37535,0.0074 2.68064,1.149321 2.64471,1.310069 3.31531,1.728772 4.7247,2.949972 1.10301,0.95572 3.16555,3.02211 3.16555,3.17146 0,0.15476 -0.8108,0.20915 -3.11798,0.20915 h -2.24115 z"
           id="path1570" />
        <path
           style="fill:#e0bf00;fill-opacity:1;stroke:#000000;stroke-width:0.0755952;paint-order:stroke fill markers"
           d="m 120.88869,87.815711 c 0,-0.82351 -0.31176,-4.67447 -0.47448,-5.86087 -0.21245,-1.54902 -0.41047,-2.43779 -0.93687,-4.20499 -0.56492,-1.89651 -0.57138,-1.71944 0.0653,-1.789 0.91535,-0.1 4.38493,-0.33561 4.95332,-0.33638 l 0.53623,-8e-4 0.78141,1.34654 c 1.7688,3.04803 2.91148,6.54317 3.19506,9.77278 0.0556,0.6326 0.10099,1.19602 0.10099,1.25204 0,0.0712 -1.23509,0.10186 -4.11049,0.10186 h -4.11049 z"
           id="path1572" />
        <path
           style="fill:#e0bf00;fill-opacity:1;stroke:#000000;stroke-width:0.0755952;paint-order:stroke fill markers"
           d="m 118.40129,101.07066 c -0.11881,-0.0307 -0.15154,-0.0933 -0.10544,-0.20165 1.29781,-3.049229 2.1587,-6.989229 2.27969,-10.433329 l 0.0589,-1.67727 h 4.23761 c 2.33068,0 4.23715,0.0319 4.23659,0.0709 -5.3e-4,0.039 -0.062,0.64552 -0.13655,1.34787 -0.18152,1.71021 -0.43884,2.86069 -1.05382,4.71175 -0.60764,1.82898 -1.28592,3.30136 -2.27346,4.93514 l -0.7199,1.190999 -1.13526,0.0611 c -1.26366,0.0679 -5.11962,0.0641 -5.38838,-0.005 z"
           id="path1574" />
        <path
           style="fill:#e0bf00;fill-opacity:1;stroke:#000000;stroke-width:0.0755952;paint-order:stroke fill markers"
           d="m 112.08836,109.57377 c 0.0506,-0.0926 0.33986,-0.45129 0.64279,-0.79703 2.66221,-3.03849 3.21769,-3.75207 4.45744,-5.72611 l 0.78633,-1.25204 h 3.127 3.12701 l -0.18824,0.21261 c -0.10354,0.11694 -0.46176,0.52701 -0.79605,0.91127 -1.66779,1.91708 -4.70501,4.13909 -7.31069,5.34847 -0.91985,0.42693 -3.1843,1.29605 -3.67279,1.40965 -0.23326,0.0542 -0.25385,0.0415 -0.1728,-0.10682 z"
           id="path1576" />
        <path
           style="fill:#e05b00;fill-opacity:1;stroke:none;stroke-width:0.0755952;paint-order:stroke fill markers"
           d="m 97.8287,109.22685 c -3.488674,-1.22395 -6.177815,-2.93589 -9.256969,-5.8931 l -1.27567,-1.22515 2.078871,0.0361 c 1.143375,0.0198 2.551688,-0.0618 3.086834,-0.0318 l 0.929162,0.0714 0.746469,1.2065 c 0.829844,1.34126 1.44676,2.03428 3.214407,4.07747 0.741887,0.85753 1.432753,1.67609 1.535258,1.81901 0.17625,0.24574 0.177041,0.25975 0.01458,0.25781 -0.09449,-0.001 -0.577313,-0.14432 -1.072941,-0.3182 z"
           id="path1578"
           sodipodi:nodetypes="csccccsssccc" />
      </g>
    </g>
  </g>
</svg>
